<?xml version="1.0" encoding="utf-8"?>
<!-- Generator: Adobe Illustrator 27.8.1, SVG Export Plug-In . SVG Version: 6.00 Build 0)  -->
<svg version="1.1" id="Layer_1" xmlns="http://www.w3.org/2000/svg" xmlns:xlink="http://www.w3.org/1999/xlink" x="0px" y="0px"
	 viewBox="0 0 424 224" style="enable-background:new 0 0 424 224;" xml:space="preserve">
<style type="text/css">
	.st0{fill:#FFFFFF;}
	.st1{fill:#0A0A0A;}
</style>
<rect class="st1" width="424" height="224"/>
<g>
	<g>
		<g>
			<path class="st0" d="M150.52,82.65c-3.07,0-5.79,1.51-7.45,3.84l-11.26,15.78c-0.41,0.58-1.09,0.96-1.86,0.96
				c-1.26,0-2.29-1.02-2.29-2.29c0-0.47,0.14-0.91,0.38-1.27l9.51-14.23c0.97-1.45,1.54-3.2,1.54-5.07c0-5.05-4.09-9.14-9.14-9.14
				H79.67v9.14h43.43c0,2.52-2.05,4.57-4.57,4.57H79.67c0,3.25,0.68,6.34,1.91,9.14h32.38c0,2.52-2.05,4.57-4.57,4.57H84.24
				c4.17,5.55,10.81,9.14,18.29,9.14h13.71c1.26,0,2.29,1.02,2.29,2.29c0,1.26-1.02,2.29-2.29,2.29h-13.71l-15.27,22.86h30.13
				c12.65,0,23.39-8.23,27.14-19.62l5.15-15.61c1.67-5.07,4.72-9.51,8.71-12.88C156.78,84.44,153.86,82.65,150.52,82.65z
				 M150.52,88.94c-0.95,0-1.71-0.77-1.71-1.71c0-0.95,0.77-1.71,1.71-1.71c0.95,0,1.71,0.77,1.71,1.71
				C152.24,88.17,151.47,88.94,150.52,88.94z"/>
		</g>
	</g>
	<g>
		<path class="st0" d="M215.81,112.79c1.85,2.37,2.77,5.08,2.77,8.13c0,4.4-1.54,7.88-4.61,10.45c-3.07,2.57-7.36,3.86-12.85,3.86
			h-24.5v-52.6h23.68c5.34,0,9.53,1.22,12.55,3.67c3.02,2.45,4.53,5.77,4.53,9.97c0,3.1-0.81,5.67-2.43,7.72
			c-1.62,2.05-3.78,3.47-6.48,4.27C211.51,108.9,213.96,110.41,215.81,112.79z M189.43,103.91h8.39c2.1,0,3.71-0.46,4.83-1.39
			c1.12-0.92,1.69-2.29,1.69-4.08c0-1.8-0.56-3.17-1.69-4.12c-1.12-0.95-2.73-1.42-4.83-1.42h-8.39V103.91z M203.86,123.42
			c1.17-0.97,1.76-2.38,1.76-4.23c0-1.85-0.61-3.3-1.84-4.35c-1.22-1.05-2.91-1.57-5.06-1.57h-9.29v11.61h9.44
			C201.02,124.89,202.68,124.4,203.86,123.42z"/>
		<path class="st0" d="M238.81,82.63v52.6H226v-52.6H238.81z"/>
		<path class="st0" d="M274.93,135.23l-10.94-19.86h-3.07v19.86H248.1v-52.6h21.5c4.15,0,7.68,0.72,10.6,2.17
			c2.92,1.45,5.11,3.44,6.56,5.96c1.45,2.52,2.17,5.33,2.17,8.43c0,3.5-0.99,6.62-2.96,9.37c-1.97,2.75-4.88,4.7-8.73,5.84
			l12.14,20.83H274.93z M260.91,106.3h7.94c2.35,0,4.11-0.57,5.28-1.72c1.17-1.15,1.76-2.77,1.76-4.87c0-2-0.59-3.57-1.76-4.72
			c-1.17-1.15-2.93-1.72-5.28-1.72h-7.94V106.3z"/>
		<path class="st0" d="M331.2,85.92c4.15,2.2,7.35,5.28,9.63,9.25c2.27,3.97,3.41,8.55,3.41,13.75c0,5.15-1.14,9.72-3.41,13.71
			c-2.27,4-5.5,7.09-9.67,9.29c-4.17,2.2-9,3.3-14.5,3.3h-19.71v-52.6h19.71C322.21,82.63,327.05,83.73,331.2,85.92z M327.15,120.17
			c2.7-2.65,4.05-6.39,4.05-11.24c0-4.84-1.35-8.62-4.05-11.31c-2.7-2.7-6.47-4.05-11.31-4.05h-6.07v30.57h6.07
			C320.68,124.14,324.45,122.81,327.15,120.17z"/>
	</g>
</g>
</svg>
