<?xml version="1.0" encoding="utf-8"?>
<!-- Generator: Adobe Illustrator 27.8.1, SVG Export Plug-In . SVG Version: 6.00 Build 0)  -->
<svg version="1.1" id="Layer_1" xmlns="http://www.w3.org/2000/svg" xmlns:xlink="http://www.w3.org/1999/xlink" x="0px" y="0px"
	 viewBox="0 0 328 280" style="enable-background:new 0 0 328 280;" xml:space="preserve">
<style type="text/css">
	.st0{fill:#FFFFFF;}
</style>
<rect class="st0" width="328" height="280"/>
<g>
	<g>
		<g>
			<path d="M195.47,77.42c-3.07,0-5.78,1.51-7.44,3.83l-11.25,15.76c-0.41,0.58-1.09,0.96-1.86,0.96c-1.26,0-2.28-1.02-2.28-2.28
				c0-0.47,0.14-0.9,0.38-1.27l9.5-14.21c0.97-1.45,1.53-3.19,1.53-5.07c0-5.04-4.09-9.13-9.13-9.13h-50.23v9.13h43.38
				c0,2.52-2.04,4.57-4.57,4.57h-38.82c0,3.25,0.68,6.34,1.91,9.13h32.34c0,2.52-2.04,4.57-4.57,4.57h-25.12
				c4.17,5.55,10.8,9.13,18.27,9.13h13.7c1.26,0,2.28,1.02,2.28,2.28c0,1.26-1.02,2.28-2.28,2.28h-13.7l-15.26,22.83h30.1
				c12.64,0,23.36-8.22,27.11-19.6l5.14-15.6c1.67-5.06,4.72-9.5,8.7-12.87C201.72,79.2,198.8,77.42,195.47,77.42z M195.47,83.7
				c-0.95,0-1.71-0.77-1.71-1.71c0-0.95,0.77-1.71,1.71-1.71c0.95,0,1.71,0.77,1.71,1.71C197.18,82.93,196.41,83.7,195.47,83.7z"/>
		</g>
	</g>
	<g>
		<path d="M119.43,191.58c1.85,2.37,2.77,5.08,2.77,8.12c0,4.39-1.53,7.87-4.6,10.44c-3.07,2.57-7.35,3.86-12.84,3.86H80.28v-52.54
			h23.65c5.34,0,9.52,1.22,12.54,3.67c3.02,2.45,4.53,5.76,4.53,9.96c0,3.09-0.81,5.66-2.43,7.71c-1.62,2.05-3.78,3.47-6.47,4.27
			C115.14,187.7,117.58,189.21,119.43,191.58z M93.08,182.71h8.38c2.1,0,3.7-0.46,4.83-1.38c1.12-0.92,1.68-2.28,1.68-4.08
			c0-1.8-0.56-3.17-1.68-4.12c-1.12-0.95-2.73-1.42-4.83-1.42h-8.38V182.71z M107.49,202.21c1.17-0.97,1.76-2.38,1.76-4.23
			c0-1.85-0.61-3.29-1.83-4.34c-1.22-1.05-2.91-1.57-5.05-1.57h-9.28v11.6h9.43C104.66,203.67,106.32,203.18,107.49,202.21z"/>
		<path d="M142.41,161.46V214h-12.8v-52.54H142.41z"/>
		<path d="M178.48,214l-10.93-19.83h-3.07V214h-12.8v-52.54h21.48c4.14,0,7.67,0.72,10.59,2.17c2.92,1.45,5.1,3.43,6.55,5.95
			c1.45,2.52,2.17,5.33,2.17,8.42c0,3.49-0.99,6.61-2.96,9.36c-1.97,2.75-4.88,4.69-8.72,5.84L192.93,214H178.48z M164.49,185.11
			h7.93c2.34,0,4.1-0.57,5.28-1.72c1.17-1.15,1.76-2.77,1.76-4.86c0-2-0.59-3.57-1.76-4.72c-1.17-1.15-2.93-1.72-5.28-1.72h-7.93
			V185.11z"/>
		<path d="M234.69,164.75c4.14,2.2,7.35,5.28,9.62,9.24c2.27,3.97,3.4,8.55,3.4,13.73c0,5.14-1.14,9.71-3.4,13.7
			c-2.27,3.99-5.49,7.09-9.66,9.28c-4.17,2.2-8.99,3.29-14.48,3.29h-19.68v-52.54h19.68C225.71,161.46,230.55,162.56,234.69,164.75z
			 M230.65,198.96c2.7-2.64,4.04-6.39,4.04-11.23c0-4.84-1.35-8.61-4.04-11.30c-2.69-2.69-6.46-4.04-11.30-4.04h-6.06v30.54h6.06
			C224.19,202.92,227.96,201.6,230.65,198.96z"/>
	</g>
</g>
</svg>
